<?xml version="1.0" standalone="no"?>
<!DOCTYPE svg PUBLIC "-//W3C//DTD SVG 20010904//EN"
 "http://www.w3.org/TR/2001/REC-SVG-20010904/DTD/svg10.dtd">
<svg version="1.0" xmlns="http://www.w3.org/2000/svg"
 width="300.000000pt" height="300.000000pt" viewBox="0 0 300.000000 300.000000"
 preserveAspectRatio="xMidYMid meet">

<g transform="translate(0.000000,300.000000) scale(0.100000,-0.100000)"
fill="#000000" stroke="none">
<path d="M1300 2720 c0 -154 -2 -280 -5 -280 -3 0 -27 11 -55 24 -117 57 -218
157 -272 272 -28 61 -57 174 -58 227 l0 27 -191 0 -192 0 7 -77 c36 -394 299
-722 676 -843 55 -18 54 -18 -312 -19 l-368 -1 0 -190 0 -190 373 -2 c330 -3
367 -5 327 -16 -151 -46 -341 -161 -435 -264 -152 -169 -243 -373 -261 -589
l-7 -79 190 0 190 0 7 68 c14 140 78 265 188 367 53 50 160 115 188 115 7 0
10 -93 10 -275 l0 -275 190 0 190 0 0 275 c0 195 3 275 11 275 27 0 139 -70
194 -121 100 -94 166 -226 180 -362 l7 -67 189 0 189 0 0 28 c0 66 -31 225
-60 303 -99 274 -326 496 -597 585 l-88 29 378 3 377 2 -2 188 -3 187 -375 5
c-241 3 -361 8 -335 13 114 24 287 122 397 226 117 110 193 225 253 386 22 57
55 232 55 289 l0 26 -188 0 -188 0 -11 -78 c-21 -142 -71 -241 -173 -342 -45
-45 -179 -130 -204 -130 -3 0 -6 126 -6 280 l0 280 -190 0 -190 0 0 -280z"/>
<path d="M532 403 c4 -248 11 -277 85 -345 53 -47 119 -62 244 -56 109 5 162
26 205 83 48 63 53 94 54 323 l0 212 -95 0 -95 0 0 -209 c0 -204 -1 -211 -23
-236 -16 -20 -35 -28 -68 -32 -41 -5 -50 -2 -80 25 l-34 30 -3 211 -3 211 -95
0 -96 0 4 -217z"/>
<path d="M1202 548 l3 -73 98 -3 97 -3 0 -229 0 -230 95 0 95 0 0 230 0 230
95 0 95 0 0 75 0 75 -290 0 -291 0 3 -72z"/>
<path d="M1870 315 l0 -305 90 0 90 0 2 162 3 161 110 -161 109 -162 86 0 87
0 6 152 c4 83 7 220 7 305 l0 153 -90 0 -90 0 -2 -167 -3 -167 -114 167 -114
167 -88 0 -89 0 0 -305z"/>
</g>
</svg>
